<?xml version="1.0" encoding="UTF-8" standalone="no"?>
<svg
   xmlns:dc="http://purl.org/dc/elements/1.1/"
   xmlns:cc="http://creativecommons.org/ns#"
   xmlns:rdf="http://www.w3.org/1999/02/22-rdf-syntax-ns#"
   xmlns:svg="http://www.w3.org/2000/svg"
   xmlns="http://www.w3.org/2000/svg"
   xmlns:sodipodi="http://sodipodi.sourceforge.net/DTD/sodipodi-0.dtd"
   xmlns:inkscape="http://www.inkscape.org/namespaces/inkscape"
   id="svg8804"
   xml:space="preserve"
   viewBox="0 0 144.00001 89.999994"
   height="1in"
   width="1.6in"
   y="0px"
   x="0px"
   version="1.2"
   inkscape:version="0.91 r13725"
   sodipodi:docname="BreadboardViewGraphic_Relay.svg"><sodipodi:namedview
     pagecolor="#ffffff"
     bordercolor="#666666"
     borderopacity="1"
     objecttolerance="10"
     gridtolerance="10"
     guidetolerance="10"
     inkscape:pageopacity="0"
     inkscape:pageshadow="2"
     inkscape:window-width="1680"
     inkscape:window-height="1050"
     id="namedview4411"
     showgrid="false"
     inkscape:zoom="4.6445109"
     inkscape:cx="63.853319"
     inkscape:cy="40.921191"
     inkscape:window-x="0"
     inkscape:window-y="0"
     inkscape:window-maximized="1"
     inkscape:current-layer="svg8804"><inkscape:grid
       type="xygrid"
       id="grid5030"
       units="in"
       spacingx="0.90000006"
       spacingy="0.89999994" /></sodipodi:namedview><metadata
     id="metadata11744"><rdf:RDF><cc:Work
         rdf:about=""><dc:format>image/svg+xml</dc:format><dc:type
           rdf:resource="http://purl.org/dc/dcmitype/StillImage" /><dc:title></dc:title></cc:Work></rdf:RDF></metadata><defs
     id="defs11742" /><g
     transform="translate(-20.868004,-115.39107)"
     id="_x30_.1.0.1.2"><title
       id="0.1.0.1.2.0">text:MADE IN</title></g><g
     transform="translate(-20.868004,-115.39107)"
     id="_x30_.1.0.1.3"><title
       id="0.1.0.1.3.0">text:ITALY</title></g><g
     transform="translate(-20.868004,-115.39107)"
     id="_x30_.1.0.1.4"><title
       id="0.1.0.1.4.0">text:Prototype</title></g><g
     transform="translate(-20.868004,-115.39107)"
     id="_x30_.1.0.1.5"><title
       id="0.1.0.1.5.0">text:Limited</title></g><g
     transform="translate(-20.868004,-115.39107)"
     id="_x30_.1.0.1.6"><title
       id="0.1.0.1.6.0">text:Edition</title></g><g
     transform="translate(-20.868004,-115.39107)"
     id="_x30_.1.0.1.20"><title
       id="0.1.0.1.20.0">element:C1</title><g
       id="_x30_.1.0.1.20.1"><title
         id="0.1.0.1.20.1.0">package:C0603-ROUND</title></g></g><g
     transform="translate(-20.868004,-115.39107)"
     id="_x30_.1.0.1.21"><title
       id="0.1.0.1.21.0">element:C2</title><g
       id="_x30_.1.0.1.21.1"><title
         id="0.1.0.1.21.1.0">package:C0603-ROUND</title></g></g><g
     transform="translate(-20.868004,-115.39107)"
     id="_x30_.1.0.1.22"><title
       id="0.1.0.1.22.0">element:C3</title><g
       id="_x30_.1.0.1.22.1"><title
         id="0.1.0.1.22.1.0">package:C0603-ROUND</title></g></g><g
     transform="translate(-20.868004,-115.39107)"
     id="_x30_.1.0.1.23"><title
       id="0.1.0.1.23.0">element:C4</title><g
       id="_x30_.1.0.1.23.1"><title
         id="0.1.0.1.23.1.0">package:C0603-ROUND</title></g></g><g
     transform="translate(-20.868004,-115.39107)"
     id="_x30_.1.0.1.24"><title
       id="0.1.0.1.24.0">element:C5</title><g
       id="_x30_.1.0.1.24.1"><title
         id="0.1.0.1.24.1.0">package:C0603-ROUND</title></g></g><g
     transform="translate(-20.868004,-115.39107)"
     id="_x30_.1.0.1.25"><title
       id="0.1.0.1.25.0">element:C6</title><g
       id="_x30_.1.0.1.25.1"><title
         id="0.1.0.1.25.1.0">package:C0603-ROUND</title></g></g><g
     transform="translate(-20.868004,-115.39107)"
     id="_x30_.1.0.1.26"><title
       id="0.1.0.1.26.0">element:C7</title><g
       id="_x30_.1.0.1.26.1"><title
         id="0.1.0.1.26.1.0">package:C0603-ROUND</title></g></g><g
     transform="translate(-20.868004,-115.39107)"
     id="_x30_.1.0.1.27"><title
       id="0.1.0.1.27.0">element:C8</title><g
       id="_x30_.1.0.1.27.1"><title
         id="0.1.0.1.27.1.0">package:C0603-ROUND</title></g></g><g
     transform="translate(-20.868004,-115.39107)"
     id="_x30_.1.0.1.28"><title
       id="0.1.0.1.28.0">element:C9</title><g
       id="_x30_.1.0.1.28.1"><title
         id="0.1.0.1.28.1.0">package:C0603-ROUND</title></g></g><g
     transform="translate(-20.868004,-115.39107)"
     id="_x30_.1.0.1.29"><title
       id="0.1.0.1.29.0">element:C11</title><g
       id="_x30_.1.0.1.29.1"><title
         id="0.1.0.1.29.1.0">package:C0603-ROUND</title></g></g><g
     transform="translate(-20.868004,-115.39107)"
     id="_x30_.1.0.1.31"><title
       id="0.1.0.1.31.0">element:F1</title><g
       id="_x30_.1.0.1.31.1"><title
         id="0.1.0.1.31.1.0">package:L1812</title></g></g><g
     transform="translate(-20.868004,-115.39107)"
     id="_x30_.1.0.1.32"><title
       id="0.1.0.1.32.0">element:FD1</title><g
       id="_x30_.1.0.1.32.1"><title
         id="0.1.0.1.32.1.0">package:FIDUCIA-MOUNT</title></g></g><g
     transform="translate(-20.868004,-115.39107)"
     id="_x30_.1.0.1.33"><title
       id="0.1.0.1.33.0">element:FD2</title><g
       id="_x30_.1.0.1.33.1"><title
         id="0.1.0.1.33.1.0">package:FIDUCIA-MOUNT</title></g></g><g
     transform="translate(-20.868004,-115.39107)"
     id="_x30_.1.0.1.34"><title
       id="0.1.0.1.34.0">element:FD3</title><g
       id="_x30_.1.0.1.34.1"><title
         id="0.1.0.1.34.1.0">package:FIDUCIA-MOUNT</title></g></g><g
     transform="translate(-20.868004,-115.39107)"
     id="_x30_.1.0.1.35"><title
       id="0.1.0.1.35.0">element:GROUND</title><g
       id="_x30_.1.0.1.35.1"><title
         id="0.1.0.1.35.1.0">package:SJ</title></g></g><g
     transform="translate(-20.868004,-115.39107)"
     id="_x30_.1.0.1.44"><title
       id="0.1.0.1.44.0">element:R1</title><g
       id="_x30_.1.0.1.44.1"><title
         id="0.1.0.1.44.1.0">package:R0603-ROUND</title></g></g><g
     transform="translate(-20.868004,-115.39107)"
     id="_x30_.1.0.1.45"><title
       id="0.1.0.1.45.0">element:R2</title><g
       id="_x30_.1.0.1.45.1"><title
         id="0.1.0.1.45.1.0">package:R0603-ROUND</title></g></g><g
     transform="translate(-20.868004,-115.39107)"
     id="_x30_.1.0.1.46"><title
       id="0.1.0.1.46.0">element:RN1</title><g
       id="_x30_.1.0.1.46.1"><title
         id="0.1.0.1.46.1.0">package:CAY16</title></g></g><g
     transform="translate(-20.868004,-115.39107)"
     id="_x30_.1.0.1.47"><title
       id="0.1.0.1.47.0">element:RN2</title><g
       id="_x30_.1.0.1.47.1"><title
         id="0.1.0.1.47.1.0">package:CAY16</title></g></g><g
     transform="translate(-20.868004,-115.39107)"
     id="_x30_.1.0.1.48"><title
       id="0.1.0.1.48.0">element:RN3</title><g
       id="_x30_.1.0.1.48.1"><title
         id="0.1.0.1.48.1.0">package:CAY16</title></g></g><g
     transform="translate(-20.868004,-115.39107)"
     id="_x30_.1.0.1.49"><title
       id="0.1.0.1.49.0">element:RN4</title><g
       id="_x30_.1.0.1.49.1"><title
         id="0.1.0.1.49.1.0">package:CAY16</title></g></g><g
     transform="translate(-20.868004,-115.39107)"
     id="_x30_.1.0.1.52"><title
       id="0.1.0.1.52.0">element:Z1</title><g
       id="_x30_.1.0.1.52.1"><title
         id="0.1.0.1.52.1.0">package:CT/CN0603</title></g></g><g
     transform="translate(-20.868004,-115.39107)"
     id="_x30_.1.0.1.53"><title
       id="0.1.0.1.53.0">element:Z2</title><g
       id="_x30_.1.0.1.53.1"><title
         id="0.1.0.1.53.1.0">package:CT/CN0603</title></g></g><rect
     ry="4.5046387"
     y="-0.0046459436"
     x="0.020790296"
     height="90.000008"
     width="144.00002"
     id="rect21853"
     style="fill:#237b3d;fill-opacity:1;stroke:none;stroke-width:1;stroke-miterlimit:4;stroke-dasharray:none;stroke-opacity:1" /><ellipse
     ry="2.1859336"
     rx="2.1874976"
     style="fill:#8c8c8c;fill-opacity:1;stroke:#9a916c;stroke-width:1.87432778"
     cx="4.7554951"
     cy="44.965584"
     id="connector1pin" /><ellipse
     ry="2.1859336"
     rx="2.1874976"
     style="fill:#8c8c8c;fill-opacity:1;stroke:#9a916c;stroke-width:1.87432778"
     cx="4.5980268"
     cy="35.937725"
     id="connector2pin" /><ellipse
     ry="2.1859336"
     rx="2.1874976"
     style="fill:#8c8c8c;fill-opacity:1;stroke:#9a916c;stroke-width:1.87432778"
     cx="4.6765532"
     cy="53.993439"
     id="connector0pin" /><text
     transform="scale(1.0003577,0.99964243)"
     x="8.1133137"
     font-size="5"
     id="0.8.0-6-3"
     style="font-style:normal;font-variant:normal;font-weight:normal;font-stretch:normal;font-size:4.99821234px;font-family:OCRA;-inkscape-font-specification:OCRA;fill:#d6d8d6"
     y="46.58279">EN</text>
<text
     transform="scale(1.0003577,0.99964243)"
     x="8.1133137"
     font-size="5"
     id="0.8.0-6-0"
     style="font-style:normal;font-variant:normal;font-weight:normal;font-stretch:normal;font-size:4.99821234px;font-family:OCRA;-inkscape-font-specification:OCRA;fill:#d6d8d6"
     y="55.444065">GND</text>
<g
     id="g5413"
     transform="matrix(1.4625991,0,0,1.4459919,-85.011164,-28.168369)"><path
       inkscape:connector-curvature="0"
       style="fill:#ffffff;fill-rule:evenodd;stroke:none;stroke-width:1px;stroke-linecap:butt;stroke-linejoin:miter;stroke-opacity:1"
       d="m 79.843754,25.703121 -2.09375,-0.01562 0.01563,4.0125 -3.96563,0 0,-2.278125 -2.15937,-1.71875 0,10.296875 2.15937,0 0,-4.5 3.93438,0 0,2.73125 2.078125,1.76875 z"
       id="path5409" /><path
       inkscape:connector-curvature="0"
       style="fill:#ffffff;fill-rule:evenodd;stroke:none;stroke-width:1px;stroke-linecap:butt;stroke-linejoin:miter;stroke-opacity:1"
       d="m 80.999999,36.899996 -10.218745,0 -5e-6,-12.290625 -0.581255,0.01562 0,12.734376 10.8,0 z"
       id="path5411" /></g><g
     transform="matrix(0,0.99999994,-0.99928513,0,51.374853,67.841364)"
     id="g4795"><rect
       style="fill:#1a1a1a;fill-opacity:1;stroke:none;stroke-width:1;stroke-miterlimit:4;stroke-dasharray:none;stroke-opacity:1"
       id="rect4797"
       width="2.7115386"
       height="5.4000001"
       x="-5.4423084"
       y="27.907686"
       ry="0"
       transform="scale(-1,1)" /><rect
       transform="scale(-1,1)"
       ry="0"
       y="27.907686"
       x="-5.4423084"
       height="0.88076943"
       width="2.7115386"
       id="rect4799"
       style="fill:#cccccc;fill-opacity:1;stroke:none;stroke-width:1;stroke-miterlimit:4;stroke-dasharray:none;stroke-opacity:1" /><rect
       transform="scale(-1,1)"
       ry="0"
       y="32.446148"
       x="-5.4423084"
       height="0.86153865"
       width="2.7115386"
       id="rect4801"
       style="fill:#cccccc;fill-opacity:1;stroke:none;stroke-width:1;stroke-miterlimit:4;stroke-dasharray:none;stroke-opacity:1" /></g><text
     sodipodi:linespacing="125%"
     id="text4803"
     y="73.812454"
     x="9.2199039"
     style="font-style:normal;font-weight:normal;font-size:39.9856987px;line-height:125%;font-family:sans-serif;letter-spacing:0px;word-spacing:0px;fill:#000000;fill-opacity:1;stroke:none;stroke-width:1px;stroke-linecap:butt;stroke-linejoin:miter;stroke-opacity:1"
     xml:space="preserve"
     transform="scale(0.99964252,1.0003576)"><tspan
       style="font-style:normal;font-variant:normal;font-weight:normal;font-stretch:normal;font-size:4.99821234px;font-family:OCRA;-inkscape-font-specification:OCRA;fill:#ffffff"
       y="73.812454"
       x="9.2199039"
       id="tspan4805">R1</tspan></text>
<g
     id="g4807"
     transform="matrix(0,0.99999994,-0.99928513,0,51.660753,74.083438)"><rect
       transform="scale(-1,1)"
       ry="0"
       y="27.907686"
       x="-5.4423084"
       height="5.4000001"
       width="2.7115386"
       id="rect4809"
       style="fill:#1a1a1a;fill-opacity:1;stroke:none;stroke-width:1;stroke-miterlimit:4;stroke-dasharray:none;stroke-opacity:1" /><rect
       style="fill:#cccccc;fill-opacity:1;stroke:none;stroke-width:1;stroke-miterlimit:4;stroke-dasharray:none;stroke-opacity:1"
       id="rect4811"
       width="2.7115386"
       height="0.88076943"
       x="-5.4423084"
       y="27.907686"
       ry="0"
       transform="scale(-1,1)" /><rect
       style="fill:#cccccc;fill-opacity:1;stroke:none;stroke-width:1;stroke-miterlimit:4;stroke-dasharray:none;stroke-opacity:1"
       id="rect4813"
       width="2.7115386"
       height="0.86153865"
       x="-5.4423084"
       y="32.446148"
       ry="0"
       transform="scale(-1,1)" /></g><text
     transform="scale(1.0003577,0.99964243)"
     x="8.1133137"
     font-size="5"
     id="0.8.0-6-0-7"
     style="font-style:normal;font-variant:normal;font-weight:normal;font-stretch:normal;font-size:4.99821234px;font-family:OCRA;-inkscape-font-specification:OCRA;fill:#d6d8d6"
     y="37.721527">VCC</text>
<text
     sodipodi:linespacing="125%"
     id="text4803-4"
     y="80.457382"
     x="8.7789726"
     style="font-style:normal;font-weight:normal;font-size:39.9856987px;line-height:125%;font-family:sans-serif;letter-spacing:0px;word-spacing:0px;fill:#000000;fill-opacity:1;stroke:none;stroke-width:1px;stroke-linecap:butt;stroke-linejoin:miter;stroke-opacity:1"
     xml:space="preserve"
     transform="scale(0.99964252,1.0003576)"><tspan
       style="font-style:normal;font-variant:normal;font-weight:normal;font-stretch:normal;font-size:4.99821234px;font-family:OCRA;-inkscape-font-specification:OCRA;fill:#ffffff"
       y="80.457382"
       x="8.7789726"
       id="tspan4805-1">R2</tspan></text>
<g
     transform="translate(-27.508257,52.577282)"
     id="g308865"><rect
       transform="scale(-1,1)"
       ry="0"
       y="11.810816"
       x="-64.377457"
       height="0.86092269"
       width="2.7115386"
       id="rect308860"
       style="fill:#cccccc;fill-opacity:1;stroke:none;stroke-width:1;stroke-miterlimit:4;stroke-dasharray:none;stroke-opacity:1" /><rect
       transform="scale(-1,1)"
       ry="0"
       y="6.3644118"
       x="-64.346039"
       height="0.88013977"
       width="2.7115386"
       id="rect308858"
       style="fill:#cccccc;fill-opacity:1;stroke:none;stroke-width:1;stroke-miterlimit:4;stroke-dasharray:none;stroke-opacity:1" /><rect
       style="fill:#1a1a1a;fill-opacity:1;stroke:none;stroke-width:1;stroke-miterlimit:4;stroke-dasharray:none;stroke-opacity:1"
       id="rect308856"
       width="4.2197108"
       height="5.3961396"
       x="-65.131538"
       y="6.6786141"
       ry="0"
       transform="scale(-1,1)" /></g><text
     sodipodi:linespacing="125%"
     xml:space="preserve"
     style="font-style:normal;font-weight:normal;font-size:39.9856987px;line-height:125%;font-family:sans-serif;letter-spacing:0px;word-spacing:0px;fill:#000000;fill-opacity:1;stroke:none;stroke-width:1px;stroke-linecap:butt;stroke-linejoin:miter;stroke-opacity:1"
     x="31.526472"
     y="54.972195"
     id="text308893"
     transform="scale(1.0003577,0.99964243)"><tspan
       id="tspan308895"
       x="31.526472"
       y="54.972195"
       style="font-style:normal;font-variant:normal;font-weight:normal;font-stretch:normal;font-size:4.99821234px;font-family:OCRA;-inkscape-font-specification:OCRA;fill:#ffffff">D1</tspan></text>
<g
     id="g4963"
     transform="matrix(1.4763781,0,0,3.1284855,42.568488,5.1732938)"><path
       style="fill:#1a1a1a"
       inkscape:connector-curvature="0"
       d="m 36.576,12.35 c 0,0.551 -0.45,1 -1,1 L 1,13.35 c -0.55,0 -1,-0.449 -1,-1 L 0,1 C 0,0.447 0.45,0 1,0 l 34.576,0 c 0.55,0 1,0.447 1,1 l 0,11.35 z"
       id="path4965" /><path
       style="fill:#ffffff;fill-opacity:0.1"
       inkscape:connector-curvature="0"
       d="M 35.576,0.308 1,0.308 c -0.55,0 -1,0.447 -1,1 L 0,1 C 0,0.447 0.45,0 1,0 l 34.576,0 0,0.308 z"
       id="path4967" /></g><path
     style="fill:#1a1a1a"
     inkscape:connector-curvature="0"
     d="m 96.568489,79.529608 c 0,1.251499 -0.66437,2.271323 -1.47637,2.271323 l -51.047253,0 c -0.812008,0 -1.476378,-1.019824 -1.476378,-2.271323 l 0,-25.779521 c 0,-1.265127 0.66437,-2.271323 1.476378,-2.271323 l 51.047253,0 c 0.812,0 1.47637,1.006196 1.47637,2.271323 l 0,25.779521 z"
     id="path4969" /><path
     style="fill:#333333"
     inkscape:connector-curvature="0"
     d="m 95.642809,5.1732938 -47.334163,0 0,11.2781902 c 0,1.573628 -0.608268,2.865693 -1.352362,2.865693 l -4.387796,0 0,53.346935 c 0,1.085584 0.417815,1.967817 0.925689,1.967817 l 52.148632,0 c 0.50935,0 0.92568,-0.882233 0.92568,-1.967817 l 0,-65.5292578 c 0,-1.076199 -0.41633,-1.9615604 -0.92568,-1.9615604 z"
     id="path4971" /><text
     id="text4973"
     font-size="2.531"
     transform="matrix(0,-0.96100129,1.0405813,0,0,0)"
     style="font-size:5.82578611px;font-family:DroidSans;fill:#808080"
     x="-72.489197"
     y="47.686401">OMRON</text>
<path
     style="fill:#ffffff;fill-opacity:0.1"
     inkscape:connector-curvature="0"
     d="m 48.308646,6.1525097 47.334163,0 c 0.50935,0 0.92568,0.8853615 0.92568,1.9615605 l 0,-0.979216 c 0,-1.076199 -0.41633,-1.9615604 -0.92568,-1.9615604 l -47.334163,0 0,0.9792159 z"
     id="path4985" /><path
     style="fill:#ffffff;fill-opacity:0.1"
     inkscape:connector-curvature="0"
     d="m 42.568488,20.296394 4.387796,0 c 0.744094,0 1.352362,-1.292065 1.352362,-2.865695 l 0,-0.979215 c 0,1.573629 -0.608268,2.865693 -1.352362,2.865693 l -4.387796,0 0,0.979217 z"
     id="path4987" /><path
     style="fill-opacity:0.7"
     inkscape:connector-curvature="0"
     d="m 42.568488,78.802784 c 0,1.251499 0.66437,2.271323 1.476378,2.271323 l 51.047253,0 c 0.812,0 1.47637,-1.019824 1.47637,-2.271323 l 0,0.726823 c 0,1.2515 -0.66437,2.271323 -1.47637,2.271323 l -51.047253,0 c -0.812008,0 -1.476378,-1.019823 -1.476378,-2.271323 l 0,-0.726823 z"
     id="path4989" /><path
     style="fill-opacity:0.1"
     inkscape:connector-curvature="0"
     d="m 96.568489,71.662995 c 0,1.088713 -0.41633,1.967818 -0.92568,1.967818 l -52.148632,0 c -0.507874,0 -0.925689,-0.879105 -0.925689,-1.967818 l 0,1.001116 c 0,1.085584 0.417815,1.967818 0.925689,1.967818 l 52.148632,0 c 0.50935,0 0.92568,-0.882234 0.92568,-1.967818 l 0,-1.001116 z"
     id="path4991" /><text
     id="text4973-8"
     font-size="2.531"
     transform="matrix(0,-0.96100131,1.0405813,0,0,0)"
     style="font-size:5.82578611px;font-family:DroidSans;fill:#808080"
     x="-72.248299"
     y="53.923164">G5LE-14-36</text>
<text
     y="59.689178"
     x="-72.248299"
     style="font-size:5.82578611px;font-family:DroidSans;fill:#808080"
     transform="matrix(0,-0.96100131,1.0405813,0,0,0)"
     font-size="2.531"
     id="text5170">5 VDC ===</text>
<text
     y="82.177567"
     x="-80.038193"
     style="font-size:6.39596653px;font-family:DroidSans;fill:#808080"
     transform="matrix(0,-0.87533106,1.1424249,0,0,0)"
     font-size="2.531"
     id="text5170-0">528Y2W</text>
<g
     id="g10407"
     transform="translate(-12.000001,2.0000001)"><polygon
       transform="matrix(0,-0.24749998,0.15886237,0,114.60517,66.876152)"
       points="196.012,72.4061 200,72.4061 200,39.9487 196.012,39.9487 196.012,0 0,0 0,39.9487 3.98829,39.9487 3.98829,72.4061 0,72.4061 0,157.607 196.012,157.607 "
       id="background"
       style="fill:#2ca02c" /><rect
       transform="matrix(0,-1,1,0,0,0)"
       height="1.5240873"
       y="114.98353"
       x="-66.481071"
       width="47.630501"
       id="upperstripe"
       style="fill:#37c837;stroke-width:0" /><rect
       transform="matrix(0,-1,1,0,0,0)"
       height="4.8086629"
       y="134.83214"
       x="-66.87616"
       width="48.512966"
       id="lowerrect"
       style="fill:#217821;stroke-width:0" /><g
       id="g10336"><path
         style="fill:#37c837"
         inkscape:connector-curvature="0"
         d="m 132.787,26.755609 c 0,-3.867867 -3.14713,-7.017416 -7.02436,-7.017416 l 0,14.037592 c 3.87999,0.0028 7.02436,-3.144008 7.02436,-7.020176 z"
         id="path9955" /><path
         style="fill:#217821"
         inkscape:connector-curvature="0"
         d="m 118.74106,26.755609 c 0,3.873387 3.1499,7.020176 7.02158,7.020176 l 0,-14.037592 c -3.87721,2e-5 -7.02158,3.144028 -7.02158,7.017416 z"
         id="path9957" /><g
         id="g9959"
         transform="matrix(0,-0.20296624,0.19971723,0,116.41252,36.707084)"><g
           id="g9961"><path
             id="path9963"
             d="m 49.0302,75.3417 c -15.4904,0 -28.0678,-12.7947 -28.0678,-28.5526 0,-15.7302 12.5774,-28.5387 28.0678,-28.5387 15.4768,0 28.0542,12.7947 28.0542,28.5387 C 77.0707,62.547 64.4933,75.3417 49.0302,75.3417 l 0,0 z"
             inkscape:connector-curvature="0"
             style="fill:#8b8b8b" /><path
             id="path9965"
             d="m 49.0302,18.8043 c 15.2045,0 27.5097,12.5454 27.5097,27.9848 0,15.4533 -12.3052,27.9987 -27.5097,27.9987 -15.2045,0 -27.537,-12.5454 -27.537,-27.9987 C 21.4796,31.3497 33.812,18.8043 49.0302,18.8043 m 0,-1.0247 c -15.749,0 -28.585,13.0301 -28.585,29.0511 0,16.021 12.8088,29.0788 28.585,29.0788 15.7218,0 28.5578,-13.0162 28.5578,-29.0788 C 77.5744,30.8096 64.7655,17.7796 49.0302,17.7796 l 0,0 z"
             inkscape:connector-curvature="0" /></g><g
           id="g9967"><path
             id="path9969"
             d="m 22.3236,40.2395 c -0.5037,2.1186 -0.844,4.3341 -0.844,6.5912 0,2.28476 0.340298,4.45874 0.843939,6.63273 l 53.386,0 c 0.503641,-2.1186 0.843939,-4.32027 0.843939,-6.63273 0,-2.25707 -0.313074,-4.43105 -0.843939,-6.59119 L 22.3236,40.2395 Z"
             inkscape:connector-curvature="0"
             style="fill:#707070" /></g><g
           id="g9971"><rect
             id="rect9973"
             height="47.467602"
             y="23.083"
             x="42.5373"
             width="12.9586"
             style="fill:#545252;stroke-width:0" /><rect
             id="rect9975"
             height="13.1685"
             y="40.239498"
             x="28.612301"
             width="40.822201"
             style="fill:#545252;stroke-width:0" /></g><g
           id="g9977"
           style="opacity:0.5"><path
             id="path9979"
             d="m 49.0302,21.1167 c 13.8978,0 25.2365,11.5346 25.2365,25.6724 0,14.1655 -11.3387,25.6862 -25.2365,25.6862 -13.925,0 -25.2637,-11.5346 -25.2637,-25.6862 -0.0137,-14.1378 11.325,-25.6724 25.2637,-25.6724 m 0,-2.3124 c -15.2045,0 -27.5369,12.5454 -27.5369,27.9848 0,15.4533 12.3324,27.9987 27.5369,27.9987 15.2045,0 27.5097,-12.5454 27.5097,-27.9987 C 76.5671,31.3497 64.2347,18.8043 49.0302,18.8043 l 0,0 z"
             inkscape:connector-curvature="0" /></g></g></g><g
       transform="translate(0,16.000001)"
       id="g10351"><path
         id="path10353"
         d="m 132.787,26.755609 c 0,-3.867867 -3.14713,-7.017416 -7.02436,-7.017416 l 0,14.037592 c 3.87999,0.0028 7.02436,-3.144008 7.02436,-7.020176 z"
         inkscape:connector-curvature="0"
         style="fill:#37c837" /><path
         id="path10355"
         d="m 118.74106,26.755609 c 0,3.873387 3.1499,7.020176 7.02158,7.020176 l 0,-14.037592 c -3.87721,2e-5 -7.02158,3.144028 -7.02158,7.017416 z"
         inkscape:connector-curvature="0"
         style="fill:#217821" /><g
         transform="matrix(0,-0.20296624,0.19971723,0,116.41252,36.707084)"
         id="g10357"><g
           id="g10359"><path
             style="fill:#8b8b8b"
             inkscape:connector-curvature="0"
             d="m 49.0302,75.3417 c -15.4904,0 -28.0678,-12.7947 -28.0678,-28.5526 0,-15.7302 12.5774,-28.5387 28.0678,-28.5387 15.4768,0 28.0542,12.7947 28.0542,28.5387 C 77.0707,62.547 64.4933,75.3417 49.0302,75.3417 l 0,0 z"
             id="path10361" /><path
             inkscape:connector-curvature="0"
             d="m 49.0302,18.8043 c 15.2045,0 27.5097,12.5454 27.5097,27.9848 0,15.4533 -12.3052,27.9987 -27.5097,27.9987 -15.2045,0 -27.537,-12.5454 -27.537,-27.9987 C 21.4796,31.3497 33.812,18.8043 49.0302,18.8043 m 0,-1.0247 c -15.749,0 -28.585,13.0301 -28.585,29.0511 0,16.021 12.8088,29.0788 28.585,29.0788 15.7218,0 28.5578,-13.0162 28.5578,-29.0788 C 77.5744,30.8096 64.7655,17.7796 49.0302,17.7796 l 0,0 z"
             id="path10363" /></g><g
           id="g10365"><path
             style="fill:#707070"
             inkscape:connector-curvature="0"
             d="m 22.3236,40.2395 c -0.5037,2.1186 -0.844,4.3341 -0.844,6.5912 0,2.28476 0.340298,4.45874 0.843939,6.63273 l 53.386,0 c 0.503641,-2.1186 0.843939,-4.32027 0.843939,-6.63273 0,-2.25707 -0.313074,-4.43105 -0.843939,-6.59119 L 22.3236,40.2395 Z"
             id="path10367" /></g><g
           id="g10369"><rect
             style="fill:#545252;stroke-width:0"
             width="12.9586"
             x="42.5373"
             y="23.083"
             height="47.467602"
             id="rect10371" /><rect
             style="fill:#545252;stroke-width:0"
             width="40.822201"
             x="28.612301"
             y="40.239498"
             height="13.1685"
             id="rect10373" /></g><g
           style="opacity:0.5"
           id="g10375"><path
             inkscape:connector-curvature="0"
             d="m 49.0302,21.1167 c 13.8978,0 25.2365,11.5346 25.2365,25.6724 0,14.1655 -11.3387,25.6862 -25.2365,25.6862 -13.925,0 -25.2637,-11.5346 -25.2637,-25.6862 -0.0137,-14.1378 11.325,-25.6724 25.2637,-25.6724 m 0,-2.3124 c -15.2045,0 -27.5369,12.5454 -27.5369,27.9848 0,15.4533 12.3324,27.9987 27.5369,27.9987 15.2045,0 27.5097,-12.5454 27.5097,-27.9987 C 76.5671,31.3497 64.2347,18.8043 49.0302,18.8043 l 0,0 z"
             id="path10377" /></g></g></g><g
       id="g10379"
       transform="translate(0,32.000001)"><path
         style="fill:#37c837"
         inkscape:connector-curvature="0"
         d="m 132.787,26.755609 c 0,-3.867867 -3.14713,-7.017416 -7.02436,-7.017416 l 0,14.037592 c 3.87999,0.0028 7.02436,-3.144008 7.02436,-7.020176 z"
         id="path10381" /><path
         style="fill:#217821"
         inkscape:connector-curvature="0"
         d="m 118.74106,26.755609 c 0,3.873387 3.1499,7.020176 7.02158,7.020176 l 0,-14.037592 c -3.87721,2e-5 -7.02158,3.144028 -7.02158,7.017416 z"
         id="path10383" /><g
         id="g10385"
         transform="matrix(0,-0.20296624,0.19971723,0,116.41252,36.707084)"><g
           id="g10387"><path
             id="path10389"
             d="m 49.0302,75.3417 c -15.4904,0 -28.0678,-12.7947 -28.0678,-28.5526 0,-15.7302 12.5774,-28.5387 28.0678,-28.5387 15.4768,0 28.0542,12.7947 28.0542,28.5387 C 77.0707,62.547 64.4933,75.3417 49.0302,75.3417 l 0,0 z"
             inkscape:connector-curvature="0"
             style="fill:#8b8b8b" /><path
             id="path10391"
             d="m 49.0302,18.8043 c 15.2045,0 27.5097,12.5454 27.5097,27.9848 0,15.4533 -12.3052,27.9987 -27.5097,27.9987 -15.2045,0 -27.537,-12.5454 -27.537,-27.9987 C 21.4796,31.3497 33.812,18.8043 49.0302,18.8043 m 0,-1.0247 c -15.749,0 -28.585,13.0301 -28.585,29.0511 0,16.021 12.8088,29.0788 28.585,29.0788 15.7218,0 28.5578,-13.0162 28.5578,-29.0788 C 77.5744,30.8096 64.7655,17.7796 49.0302,17.7796 l 0,0 z"
             inkscape:connector-curvature="0" /></g><g
           id="g10393"><path
             id="path10395"
             d="m 22.3236,40.2395 c -0.5037,2.1186 -0.844,4.3341 -0.844,6.5912 0,2.28476 0.340298,4.45874 0.843939,6.63273 l 53.386,0 c 0.503641,-2.1186 0.843939,-4.32027 0.843939,-6.63273 0,-2.25707 -0.313074,-4.43105 -0.843939,-6.59119 L 22.3236,40.2395 Z"
             inkscape:connector-curvature="0"
             style="fill:#707070" /></g><g
           id="g10397"><rect
             id="rect10399"
             height="47.467602"
             y="23.083"
             x="42.5373"
             width="12.9586"
             style="fill:#545252;stroke-width:0" /><rect
             id="rect10401"
             height="13.1685"
             y="40.239498"
             x="28.612301"
             width="40.822201"
             style="fill:#545252;stroke-width:0" /></g><g
           id="g10403"
           style="opacity:0.5"><path
             id="path10405"
             d="m 49.0302,21.1167 c 13.8978,0 25.2365,11.5346 25.2365,25.6724 0,14.1655 -11.3387,25.6862 -25.2365,25.6862 -13.925,0 -25.2637,-11.5346 -25.2637,-25.6862 -0.0137,-14.1378 11.325,-25.6724 25.2637,-25.6724 m 0,-2.3124 c -15.2045,0 -27.5369,12.5454 -27.5369,27.9848 0,15.4533 12.3324,27.9987 27.5369,27.9987 15.2045,0 27.5097,-12.5454 27.5097,-27.9987 C 76.5671,31.3497 64.2347,18.8043 49.0302,18.8043 l 0,0 z"
             inkscape:connector-curvature="0" /></g></g></g></g><text
     transform="scale(1.0003577,0.99964242)"
     x="129.07312"
     font-size="5"
     id="0.8.0-6-0-7-2"
     style="font-style:normal;font-variant:normal;font-weight:normal;font-stretch:normal;font-size:4.99821234px;font-family:OCRA;-inkscape-font-specification:OCRA;fill:#d6d8d6"
     y="30.613823">NC</text>
<text
     y="46.61956"
     style="font-style:normal;font-variant:normal;font-weight:normal;font-stretch:normal;font-size:4.99821234px;font-family:OCRA;-inkscape-font-specification:OCRA;fill:#d6d8d6"
     id="text10499"
     font-size="5"
     x="129.07312"
     transform="scale(1.0003577,0.99964242)">NA</text>
<text
     transform="scale(1.0003577,0.99964242)"
     x="129.07312"
     font-size="5"
     id="text10501"
     style="font-style:normal;font-variant:normal;font-weight:normal;font-stretch:normal;font-size:4.99821234px;font-family:OCRA;-inkscape-font-specification:OCRA;fill:#d6d8d6"
     y="62.625298">COM</text>
<rect
     style="fill:#cccccc;fill-opacity:1;stroke:none;stroke-width:1;stroke-miterlimit:4;stroke-dasharray:none;stroke-opacity:1"
     id="rect308860-2"
     width="2.7115386"
     height="1.3017517"
     x="-37.941322"
     y="73.82486"
     ry="0"
     transform="scale(-1,1)" /><rect
     style="fill:#cccccc;fill-opacity:1;stroke:none;stroke-width:1;stroke-miterlimit:4;stroke-dasharray:none;stroke-opacity:1"
     id="rect308858-5"
     width="2.7115386"
     height="1.3308088"
     x="-32.303497"
     y="71.357544"
     ry="0"
     transform="scale(-1,1)" /><rect
     transform="scale(-1,1)"
     ry="0"
     y="76.218773"
     x="-32.249672"
     height="1.3308088"
     width="2.7115386"
     id="rect10530"
     style="fill:#cccccc;fill-opacity:1;stroke:none;stroke-width:1;stroke-miterlimit:4;stroke-dasharray:none;stroke-opacity:1" /><rect
     transform="scale(-1,1)"
     ry="0"
     y="70.532387"
     x="-36.004055"
     height="8.1591921"
     width="4.2197108"
     id="rect308856-6"
     style="fill:#1a1a1a;fill-opacity:1;stroke:none;stroke-width:1;stroke-miterlimit:4;stroke-dasharray:none;stroke-opacity:1" /><text
     sodipodi:linespacing="125%"
     xml:space="preserve"
     style="font-style:normal;font-weight:normal;font-size:39.9856987px;line-height:125%;font-family:sans-serif;letter-spacing:0px;word-spacing:0px;fill:#000000;fill-opacity:1;stroke:none;stroke-width:1px;stroke-linecap:butt;stroke-linejoin:miter;stroke-opacity:1"
     x="24.902756"
     y="68.881454"
     id="text308893-0"
     transform="scale(1.0003577,0.99964242)"><tspan
       id="tspan308895-5"
       x="24.902756"
       y="68.881454"
       style="font-style:normal;font-variant:normal;font-weight:normal;font-stretch:normal;font-size:4.99821234px;font-family:OCRA;-inkscape-font-specification:OCRA;fill:#ffffff">Q1</tspan></text>
<text
     y="74.817505"
     x="-45.452736"
     style="font-size:6.39596653px;font-family:DroidSans;fill:#808080"
     transform="matrix(0,-0.87533106,1.1424249,0,0,0)"
     font-size="2.531"
     id="text5170-0-3">5 A 250 V AC</text>
<text
     y="68.684402"
     x="-44.446571"
     style="font-size:6.39596653px;font-family:DroidSans;fill:#808080"
     transform="matrix(0,-0.87533106,1.1424249,0,0,0)"
     font-size="2.531"
     id="text5170-0-3-3">10A 250VAC</text>
</svg>