<?xml version="1.0" encoding="UTF-8" standalone="no"?>
<svg
   xmlns:dc="http://purl.org/dc/elements/1.1/"
   xmlns:cc="http://creativecommons.org/ns#"
   xmlns:rdf="http://www.w3.org/1999/02/22-rdf-syntax-ns#"
   xmlns:svg="http://www.w3.org/2000/svg"
   xmlns="http://www.w3.org/2000/svg"
   version="1.1"
   id="Layer_1"
   x="0px"
   y="0px"
   width="1.7in"
   height="1.2in"
   viewBox="0 0 153.00001 108.00001"
   enable-background="new 0 0 30.24 30.24"
   xml:space="preserve"><metadata
     id="metadata23296"><rdf:RDF><cc:Work
         rdf:about=""><dc:format>image/svg+xml</dc:format><dc:type
           rdf:resource="http://purl.org/dc/dcmitype/StillImage" /><dc:title></dc:title></cc:Work></rdf:RDF></metadata><defs
     id="defs23294" /><g
     id="keepout"
     transform="translate(0,77.760006)" /><g
     id="soldermask"
     transform="translate(0,77.760006)" /><g
     id="outline"
     transform="translate(0,77.760006)" /><g
     id="g23966"
     style="stroke-width:0"
     transform="matrix(1.25,0,0,1.25,-29.193761,54.012211)"><title
       id="title23968">element:U$2</title><g
       id="g23970"
       style="stroke-width:0"><title
         id="title23972">package:SFE-NEW-WEBLOGO</title></g></g><g
     id="g5668"><rect
       ry="4.0347514"
       y="0.46525246"
       x="0.33686677"
       height="107.1068"
       width="152.10681"
       id="rect24276"
       style="fill:none;fill-opacity:1;stroke:#ffffff;stroke-width:0.89320463;stroke-miterlimit:4;stroke-dasharray:none;stroke-opacity:1" /><g
       id="copper0"
       transform="translate(31.519073,54.000004)"><circle
         style="fill:none;stroke:#f7bd13;stroke-width:1.52999997"
         cx="49.491352"
         cy="-67.484497"
         connectorname="ST"
         r="2.5650001"
         id="connector1pad"
         transform="matrix(0,1,-1,0,0,0)" /><circle
         style="fill:none;stroke:#f7bd13;stroke-width:1.52999997"
         cx="49.491352"
         cy="-58.484497"
         connectorname="ZOUT"
         r="2.5650001"
         id="connector2pad"
         transform="matrix(0,1,-1,0,0,0)" /><circle
         style="fill:none;stroke:#f7bd13;stroke-width:1.52999997"
         cx="49.491352"
         cy="-49.484497"
         connectorname="YOUT"
         r="2.5650001"
         id="connector3pad"
         transform="matrix(0,1,-1,0,0,0)" /><circle
         style="fill:none;stroke:#f7bd13;stroke-width:1.52999997"
         cx="49.491352"
         cy="-40.484497"
         connectorname="XOUT"
         r="2.5650001"
         id="connector4pad"
         transform="matrix(0,1,-1,0,0,0)" /><circle
         style="fill:none;stroke:#f7bd13;stroke-width:1.52999997"
         cx="49.491352"
         cy="-31.484495"
         connectorname="GND"
         r="2.5650001"
         id="connector5pad"
         transform="matrix(0,1,-1,0,0,0)" /><circle
         style="fill:none;stroke:#f7bd13;stroke-width:1.52999997"
         cx="49.491352"
         cy="-22.484495"
         connectorname="VCC"
         r="2.5650001"
         id="connector6pad"
         transform="matrix(0,1,-1,0,0,0)" /><circle
         style="fill:none;stroke:#f7bd13;stroke-width:1.52999997"
         cx="49.463947"
         cy="-13.497498"
         connectorname="GND"
         r="2.5650001"
         id="connector12pad-7-7"
         transform="matrix(0,1,-1,0,0,0)" /><circle
         style="fill:none;stroke:#f7bd13;stroke-width:1.52999997"
         cx="49.546268"
         cy="-76.515007"
         connectorname="ST"
         r="2.5650001"
         id="connector0pad"
         transform="matrix(0,1,-1,0,0,0)" /></g></g></svg>