<?xml version="1.0" encoding="UTF-8" standalone="no"?>
<svg
   xmlns:dc="http://purl.org/dc/elements/1.1/"
   xmlns:cc="http://creativecommons.org/ns#"
   xmlns:rdf="http://www.w3.org/1999/02/22-rdf-syntax-ns#"
   xmlns:svg="http://www.w3.org/2000/svg"
   xmlns="http://www.w3.org/2000/svg"
   xml:space="preserve"
   enable-background="new 0 0 30.24 30.24"
   viewBox="0 0 72.000004 144.00001"
   height="1.6in"
   width="0.80000001in"
   y="0px"
   x="0px"
   id="Layer_1"
   version="1.1"><metadata
     id="metadata23296"><rdf:RDF><cc:Work
         rdf:about=""><dc:format>image/svg+xml</dc:format><dc:type
           rdf:resource="http://purl.org/dc/dcmitype/StillImage" /><dc:title></dc:title></cc:Work></rdf:RDF></metadata><defs
     id="defs23294" /><g
     transform="translate(0,113.76)"
     id="keepout" /><g
     transform="translate(0,113.76)"
     id="soldermask" /><g
     transform="translate(0,113.76)"
     id="outline" /><g
     transform="matrix(1.25,0,0,1.25,-29.193761,90.012209)"
     style="stroke-width:0"
     id="g23966"><title
       id="title23968">element:U$2</title><g
       style="stroke-width:0"
       id="g23970"><title
         id="title23972">package:SFE-NEW-WEBLOGO</title></g></g><g
     id="g22521"><rect
       style="fill:none;fill-opacity:1;stroke:#ffffff;stroke-width:0.70729852;stroke-miterlimit:4;stroke-dasharray:none;stroke-opacity:1"
       id="rect24276"
       width="71.292709"
       height="143.29271"
       x="0.24391371"
       y="0.37228224"
       ry="4.1277189" /><g
       transform="translate(-8.8331411,90.094181)"
       id="copper0"><circle
         transform="matrix(0,1,-1,0,0,0)"
         id="connector1pad"
         r="2.5650001"
         connectorname="ST"
         cy="-67.484497"
         cx="49.491352"
         style="fill:none;stroke:#f7bd13;stroke-width:1.52999997" /><circle
         transform="matrix(0,1,-1,0,0,0)"
         id="connector2pad"
         r="2.5650001"
         connectorname="ZOUT"
         cy="-58.484497"
         cx="49.491352"
         style="fill:none;stroke:#f7bd13;stroke-width:1.52999997" /><circle
         transform="matrix(0,1,-1,0,0,0)"
         id="connector3pad"
         r="2.5650001"
         connectorname="YOUT"
         cy="-49.484497"
         cx="49.491352"
         style="fill:none;stroke:#f7bd13;stroke-width:1.52999997" /><circle
         transform="matrix(0,1,-1,0,0,0)"
         id="connector4pad"
         r="2.5650001"
         connectorname="XOUT"
         cy="-40.484497"
         cx="49.491352"
         style="fill:none;stroke:#f7bd13;stroke-width:1.52999997" /><circle
         transform="matrix(0,1,-1,0,0,0)"
         id="connector5pad"
         r="2.5650001"
         connectorname="GND"
         cy="-31.484495"
         cx="49.491352"
         style="fill:none;stroke:#f7bd13;stroke-width:1.52999997" /><circle
         transform="matrix(0,1,-1,0,0,0)"
         id="connector6pad"
         r="2.5650001"
         connectorname="VCC"
         cy="-22.484495"
         cx="49.491352"
         style="fill:none;stroke:#f7bd13;stroke-width:1.52999997" /><circle
         transform="matrix(0,1,-1,0,0,0)"
         id="connector12pad-7-7"
         r="2.5650001"
         connectorname="GND"
         cy="-13.497498"
         cx="49.463947"
         style="fill:none;stroke:#f7bd13;stroke-width:1.52999997" /><circle
         transform="matrix(0,1,-1,0,0,0)"
         id="connector0pad"
         r="2.5650001"
         connectorname="ST"
         cy="-76.515007"
         cx="49.546268"
         style="fill:none;stroke:#f7bd13;stroke-width:1.52999997" /></g></g></svg>