<?xml version="1.0" encoding="UTF-8" standalone="no"?>
<svg
   xmlns:dc="http://purl.org/dc/elements/1.1/"
   xmlns:cc="http://creativecommons.org/ns#"
   xmlns:rdf="http://www.w3.org/1999/02/22-rdf-syntax-ns#"
   xmlns:svg="http://www.w3.org/2000/svg"
   xmlns="http://www.w3.org/2000/svg"
   version="1.1"
   id="Layer_1"
   x="0px"
   y="0px"
   width="1in"
   height="0.69999999in"
   viewBox="0 0 90.000001 63"
   enable-background="new 0 0 30.24 30.24"
   xml:space="preserve"><metadata
     id="metadata23296"><rdf:RDF><cc:Work
         rdf:about=""><dc:format>image/svg+xml</dc:format><dc:type
           rdf:resource="http://purl.org/dc/dcmitype/StillImage" /><dc:title></dc:title></cc:Work></rdf:RDF></metadata><defs
     id="defs23294" /><g
     id="keepout"
     transform="translate(0,32.760001)" /><g
     id="soldermask"
     transform="translate(0,32.760001)" /><g
     id="outline"
     transform="translate(0,32.760001)" /><g
     id="g23966"
     style="stroke-width:0"
     transform="matrix(1.25,0,0,1.25,-29.193761,9.0122054)"><title
       id="title23968">element:U$2</title><g
       id="g23970"
       style="stroke-width:0"><title
         id="title23972">package:SFE-NEW-WEBLOGO</title></g></g><g
     id="g6006"><rect
       ry="4.2124071"
       y="0.28759268"
       x="0.26599929"
       height="62.335266"
       width="89.48745"
       id="rect24276"
       style="fill:none;fill-opacity:1;stroke:#ffffff;stroke-width:0.52265614;stroke-miterlimit:4;stroke-dasharray:none;stroke-opacity:1" /><g
       id="copper0"><circle
         style="fill:none;stroke:#f7bd13;stroke-width:1.52999997"
         cx="4.56143"
         cy="-67.48967"
         connectorname="ST"
         r="2.5650001"
         id="connector2pad"
         transform="matrix(0,1,-1,0,0,0)" /><circle
         style="fill:none;stroke:#f7bd13;stroke-width:1.52999997"
         cx="4.56143"
         cy="-58.489666"
         connectorname="ZOUT"
         r="2.5650001"
         id="connector3pad"
         transform="matrix(0,1,-1,0,0,0)" /><circle
         style="fill:none;stroke:#f7bd13;stroke-width:1.52999997"
         cx="4.56143"
         cy="-49.489666"
         connectorname="YOUT"
         r="2.5650001"
         id="connector4pad"
         transform="matrix(0,1,-1,0,0,0)" /><circle
         style="fill:none;stroke:#f7bd13;stroke-width:1.52999997"
         cx="4.56143"
         cy="-40.489666"
         connectorname="XOUT"
         r="2.5650001"
         id="connector5pad"
         transform="matrix(0,1,-1,0,0,0)" /><circle
         style="fill:none;stroke:#f7bd13;stroke-width:1.52999997"
         cx="4.56143"
         cy="-31.489666"
         connectorname="GND"
         r="2.5650001"
         id="connector6pad"
         transform="matrix(0,1,-1,0,0,0)" /><circle
         style="fill:none;stroke:#f7bd13;stroke-width:1.52999997"
         cx="4.56143"
         cy="-22.489666"
         connectorname="VCC"
         r="2.5650001"
         id="connector7pad"
         transform="matrix(0,1,-1,0,0,0)" /><circle
         style="fill:none;stroke:#f7bd13;stroke-width:1.52999997"
         cx="4.5340271"
         cy="-13.502668"
         connectorname="GND"
         r="2.5650001"
         id="connector8pad"
         transform="matrix(0,1,-1,0,0,0)" /><circle
         style="fill:none;stroke:#f7bd13;stroke-width:1.52999997"
         cx="4.5340271"
         cy="-4.5026693"
         connectorname="VCC"
         r="2.5650001"
         id="connector9pad"
         transform="matrix(0,1,-1,0,0,0)" /><circle
         style="fill:none;stroke:#f7bd13;stroke-width:1.52999997"
         cx="4.5354471"
         cy="-76.52018"
         connectorname="ST"
         r="2.5650001"
         id="connector1pad"
         transform="matrix(0,1,-1,0,0,0)" /><circle
         style="fill:none;stroke:#f7bd13;stroke-width:1.52999997"
         cx="4.4848981"
         cy="-85.550369"
         connectorname="ST"
         r="2.5650001"
         id="connector0pad"
         transform="matrix(0,1,-1,0,0,0)" /></g></g></svg>