<?xml version="1.0" encoding="UTF-8" standalone="no"?>
<svg
   xmlns:dc="http://purl.org/dc/elements/1.1/"
   xmlns:cc="http://creativecommons.org/ns#"
   xmlns:rdf="http://www.w3.org/1999/02/22-rdf-syntax-ns#"
   xmlns:svg="http://www.w3.org/2000/svg"
   xmlns="http://www.w3.org/2000/svg"
   version="1.1"
   id="Layer_1"
   x="0px"
   y="0px"
   width="0.80000001in"
   height="0.89999998in"
   viewBox="0 0 72.000003 80.999999"
   enable-background="new 0 0 30.24 30.24"
   xml:space="preserve"><metadata
     id="metadata23296"><rdf:RDF><cc:Work
         rdf:about=""><dc:format>image/svg+xml</dc:format><dc:type
           rdf:resource="http://purl.org/dc/dcmitype/StillImage" /><dc:title></dc:title></cc:Work></rdf:RDF></metadata><defs
     id="defs23294" /><g
     id="keepout"
     transform="translate(0,50.76)" /><g
     id="soldermask"
     transform="translate(0,50.76)" /><g
     id="outline"
     transform="translate(0,50.76)" /><g
     id="g23966"
     style="stroke-width:0"
     transform="matrix(1.25,0,0,1.25,-29.193761,27.012204)"><title
       id="title23968">element:U$2</title><g
       id="g23970"
       style="stroke-width:0"><title
         id="title23972">package:SFE-NEW-WEBLOGO</title></g></g><g
     id="g8161"><rect
       ry="4.3068671"
       y="0.19313261"
       x="0.27346697"
       height="80.554604"
       width="71.554604"
       id="rect24276"
       style="fill:none;fill-opacity:1;stroke:#ffffff;stroke-width:0.44539577;stroke-miterlimit:4;stroke-dasharray:none;stroke-opacity:1" /><g
       id="copper0"><circle
         style="fill:none;stroke:#f7bd13;stroke-width:1.52999997"
         cx="67.574257"
         cy="-67.56813"
         connectorname="YOUT"
         r="2.5650001"
         id="connector0pad"
         transform="matrix(0,1,-1,0,0,0)" /><circle
         style="fill:none;stroke:#f7bd13;stroke-width:1.52999997"
         cx="58.550022"
         cy="-67.533333"
         connectorname="XOUT"
         r="2.5650001"
         id="connector1pad"
         transform="matrix(0,1,-1,0,0,0)" /><circle
         style="fill:none;stroke:#f7bd13;stroke-width:1.52999997"
         cx="49.571198"
         cy="-67.512154"
         connectorname="GND"
         r="2.5650001"
         id="connector2pad"
         transform="matrix(0,1,-1,0,0,0)" /><circle
         style="fill:none;stroke:#f7bd13;stroke-width:1.52999997"
         cx="40.522057"
         cy="-67.481895"
         connectorname="VCC"
         r="2.5650001"
         id="connector3pad"
         transform="matrix(0,1,-1,0,0,0)" /><circle
         style="fill:none;stroke:#f7bd13;stroke-width:1.52999997"
         cx="31.489363"
         cy="-67.505508"
         connectorname="GND"
         r="2.5650001"
         id="connector4pad"
         transform="matrix(0,1,-1,0,0,0)" /><circle
         style="fill:none;stroke:#f7bd13;stroke-width:1.52999997"
         cx="76.576241"
         cy="-67.581779"
         connectorname="YOUT"
         r="2.5650001"
         id="connector5pad"
         transform="matrix(0,1,-1,0,0,0)" /><circle
         style="fill:none;stroke:#f7bd13;stroke-width:1.52999997"
         cx="22.610052"
         cy="-67.556519"
         connectorname="GND"
         r="2.5650001"
         id="connector2pad-0"
         transform="matrix(0,1,-1,0,0,0)" /><circle
         style="fill:none;stroke:#f7bd13;stroke-width:1.52999997"
         cx="13.560911"
         cy="-67.52626"
         connectorname="VCC"
         r="2.5650001"
         id="connector3pad-0"
         transform="matrix(0,1,-1,0,0,0)" /><circle
         style="fill:none;stroke:#f7bd13;stroke-width:1.52999997"
         cx="4.5282187"
         cy="-67.549873"
         connectorname="GND"
         r="2.5650001"
         id="connector4pad-7"
         transform="matrix(0,1,-1,0,0,0)" /></g></g></svg>